HIERARCHY
ROOT Hips
{
  OFFSET 0 0 0
  CHANNELS 6 Xposition Yposition Zposition Zrotation Yrotation Xrotation
  JOINT LeftThigh
  {
    OFFSET 8.409438 0 -5.917753
    CHANNELS 3 Zrotation Yrotation Xrotation
    JOINT LeftLeg
    {
      OFFSET 0 0 -42.358652
      CHANNELS 3 Zrotation Yrotation Xrotation
      JOINT LeftFoot
      {
        OFFSET 0 0 -39.357303
        CHANNELS 3 Zrotation Yrotation Xrotation
      }
    }
  }
  JOINT RightThigh
  {
    OFFSET -8.409438 0 -5.917753
    CHANNELS 3 Zrotation Yrotation Xrotation
    JOINT RightLeg
    {
      OFFSET 0 0 -42.358652
      CHANNELS 3 Zrotation Yrotation Xrotation
      JOINT RightFoot
      {
        OFFSET 0 0 -39.357303
        CHANNELS 3 Zrotation Yrotation Xrotation
      }
    }
  }
  JOINT SpineLow
  {
    OFFSET 0 0 4.719101
    CHANNELS 3 Zrotation Yrotation Xrotation
    JOINT SpineMid
    {
      OFFSET 0 0 12.899191
      CHANNELS 3 Zrotation Yrotation Xrotation
      JOINT Chest
      {
        OFFSET 0 0 12.899191
        CHANNELS 3 Zrotation Yrotation Xrotation
        JOINT LeftShoulder
        {
          OFFSET 7.550562 1.41573 9.438202
          CHANNELS 3 Zrotation Yrotation Xrotation
          JOINT LeftArm
          {
            OFFSET 9.155056 0 4.247191
            CHANNELS 3 Zrotation Yrotation Xrotation
            JOINT LeftForearm
            {
              OFFSET 0 0 25.771955
              CHANNELS 3 Zrotation Yrotation Xrotation
              JOINT LeftHand
              {
                OFFSET 0 0 25.197169
                CHANNELS 3 Zrotation Yrotation Xrotation
              }
            }
          }
        }
        JOINT RightShoulder
        {
          OFFSET -7.550562 1.41573 9.438202
          CHANNELS 3 Zrotation Yrotation Xrotation
          JOINT RightArm
          {
            OFFSET -9.155056 0 4.247191
            CHANNELS 3 Zrotation Yrotation Xrotation
            JOINT RightForearm
            {
              OFFSET 0 0 -25.771955
              CHANNELS 3 Zrotation Yrotation Xrotation
              JOINT RightHand
              {
                OFFSET 0 0 -25.197169
                CHANNELS 3 Zrotation Yrotation Xrotation
              }
            }
          }
        }
        JOINT Neck
        {
          OFFSET 0 0 15.101124
          CHANNELS 3 Zrotation Yrotation Xrotation
          JOINT Head
          {
            OFFSET 0 0 11.325843
            CHANNELS 3 Zrotation Yrotation Xrotation
            End Site
            {
              OFFSET 0 0 14.157303
            }
          }
        }
      }
    }
  }
}
MOTION
Frames: 13
Frame Time: 0.0
0.0  101.685394  0.0  -2.347573  -30.062863  -98.322875  21.638861  -29.232949  -34.616709  8.100751  12.086804  61.007396  1.253014  4.784488  3.569732  -9.866747  20.078554  3.379346  0.547277  10.18654  26.302168  0.413495  5.415271  -6.925309  -1.670832  0.1574  2.634181  -4.543809  0.611188  7.185628  -4.54381  0.611188  7.185628  -0.184646  23.732648  4.828163  -136.348475  68.638677  -81.867088  -25.574855  -17.714302  90.625534  99.738511  17.681161  -18.153853  12.669739  -7.610002  17.662299  63.598141  26.118547  27.922049  -11.053524  41.127196  -85.378506  53.93209  0.228142  11.217174  12.192027  -1.103517  -4.2224  9.136636  -0.912371  -3.146167  
0.0  101.685394  0.0  -2.331993  -29.163995  -98.139125  21.248109  -28.934752  -34.898439  8.009325  12.023513  60.766043  1.109679  4.696037  3.601974  -10.46058  20.101238  3.367868  0.11162  10.348725  26.112734  0.46745  5.549257  -6.777903  -1.752471  0.139477  2.631249  -4.768631  0.570936  7.177969  -4.768631  0.570936  7.177969  -0.102078  23.721173  4.736519  -136.954155  68.759226  -82.132862  -25.739371  -17.714113  90.69701  99.566828  17.702561  -18.036069  12.84167  -7.477706  17.616142  63.569422  26.896712  27.803794  -11.156376  40.396448  -85.766547  53.782597  0.187614  11.905581  12.169559  -1.02218  -4.475888  9.120028  -0.856237  -3.338038  
0.0  101.685394  0.0  -2.287636  -28.2847  -97.942746  20.906988  -28.578424  -35.224034  7.905421  11.94565  60.551241  0.951528  4.567964  3.632834  -10.879631  20.046131  3.286725  -0.44797  10.475171  26.068222  0.345476  5.637089  -6.613827  -1.830934  0.121195  2.627369  -4.984824  0.529269  7.167881  -4.984824  0.529269  7.167881  0.029191  23.741797  4.683313  -137.49818  68.822027  -82.276685  -25.923046  -17.671883  90.759141  99.392965  17.719434  -17.801839  12.750251  -7.448367  17.494224  63.943761  27.814276  27.905747  -11.331686  39.483264  -86.236471  53.622791  0.161124  12.564811  12.031249  -1.004326  -4.781624  9.01601  -0.847848  -3.567992  
0.0  101.685394  0.0  -2.265803  -27.302466  -97.682437  20.561996  -28.173128  -35.636183  7.733698  11.868653  60.350348  0.76819  4.456804  3.643129  -10.958195  19.897671  3.244038  -1.055245  10.538531  26.129265  0.163712  5.846809  -6.451122  -1.91541  0.102579  2.614483  -5.217552  0.486615  7.133267  -5.217551  0.486615  7.133266  0.071757  23.769911  4.617777  -138.018163  68.866918  -82.356722  -26.099124  -17.675258  90.748163  99.231331  17.755734  -17.429952  13.018959  -7.303487  17.526609  63.855174  28.948023  27.58734  -11.372376  38.508358  -86.667231  53.448004  0.22649  13.262839  12.028813  -0.949901  -5.041498  9.014301  -0.812114  -3.764068  
0.0  101.685394  0.0  -2.103783  -26.593018  -97.521084  20.378139  -27.674629  -36.00574  7.508851  11.833628  60.135849  0.698116  4.360367  3.699164  -10.654867  19.749443  3.234983  -1.586442  10.529905  26.261764  -0.017321  6.22294  -6.365757  -1.997181  0.081352  2.598565  -5.443187  0.43621  7.090724  -5.443186  0.43621  7.090724  0.529804  24.016101  4.645349  -138.792499  68.899294  -82.496375  -26.271072  -17.729636  90.716898  99.104342  17.780357  -17.069806  13.329433  -7.128774  17.511883  64.056123  30.220544  27.481389  -11.242075  37.534069  -87.055914  53.323218  0.375311  14.005372  12.055448  -0.877897  -5.28135  9.03463  -0.763046  -3.945437  
0.0  101.685394  0.0  -2.041268  -25.577473  -97.212176  20.030197  -27.211868  -36.498455  7.288338  11.864309  59.987223  0.5487  4.242128  3.666332  -10.419664  19.534078  3.220411  -2.16586  10.448201  26.385675  -0.634151  6.503854  -6.234698  -2.041613  0.072911  2.569767  -5.565626  0.415525  7.012375  -5.565626  0.415525  7.012376  0.454554  24.041405  4.662271  -139.750044  68.900439  -82.747464  -26.39499  -17.837297  90.636062  99.032607  17.794228  -16.856836  13.537616  -7.075075  17.584117  63.750978  31.740089  26.947644  -11.698699  36.385705  -87.971646  53.47329  0.163774  14.434318  11.944682  -0.897779  -5.485879  8.951132  -0.781007  -4.098634  
0.0  101.685394  0.0  -1.843997  -24.807836  -96.969717  19.79166  -26.696891  -36.972876  6.978671  12.035313  59.770796  0.600886  4.215495  3.705178  -9.847776  19.364951  3.293854  -2.713488  10.39019  26.44441  -1.17409  6.817514  -6.179054  -2.043995  0.077971  2.537955  -5.571875  0.426903  6.925046  -5.571875  0.426903  6.925046  0.654777  24.211123  4.775905  -141.093687  68.875362  -83.093507  -26.416625  -17.91517  90.594042  99.020894  17.833356  -16.879646  13.623973  -7.095557  17.549782  63.588644  33.384031  26.511693  -12.049921  35.292055  -89.020387  53.580965  -0.124454  15.043332  11.680113  -0.996703  -5.690873  8.75149  -0.856772  -4.250839  
0.0  101.685394  0.0  -1.786756  -23.794619  -96.57264  19.389836  -26.261583  -37.538379  6.751808  12.221811  59.639021  0.518275  4.132888  3.60846  -9.589741  19.122208  3.286592  -3.369003  10.361601  26.442052  -1.728734  7.041738  -6.086962  -2.068199  0.06885  2.488041  -5.639319  0.400307  6.789282  -5.639319  0.400307  6.789282  0.677816  24.236984  4.84241  -142.851225  68.648026  -83.952683  -26.34718  -17.908855  90.618312  99.036181  17.931664  -17.178605  13.872224  -7.091611  17.544701  63.095503  35.178291  25.789137  -12.339457  34.003169  -90.054689  53.712942  -0.275595  15.678471  11.507542  -1.077277  -5.805767  8.621099  -0.917782  -4.335734  
0.0  101.685394  0.0  -1.69275  -23.007294  -96.318888  18.963894  -25.937215  -37.996832  6.777655  12.352463  59.676712  0.101006  4.040342  3.302982  -9.044833  18.878955  3.53509  -4.089042  10.414351  26.285868  -2.104378  7.197015  -6.004422  -2.054779  0.071445  2.447537  -5.602757  0.402586  6.678551  -5.602757  0.402586  6.678551  0.972125  24.341032  5.050118  -145.067602  68.406892  -85.069973  -26.231485  -17.792008  90.770721  99.058185  18.082214  -17.778686  13.966719  -7.212556  17.423002  62.832342  37.057659  25.199876  -12.573833  32.58818  -91.182446  53.656811  -0.398357  16.368483  11.288718  -1.210116  -5.892349  8.455497  -1.01697  -4.398523  
0.0  101.685394  0.0  -1.655857  -21.969857  -95.941328  18.445512  -25.595486  -38.510526  6.707454  12.580936  59.589293  -0.332532  3.987108  2.972827  -8.934854  18.64159  3.703861  -4.750612  10.471999  26.004948  -2.42698  7.353131  -5.910487  -2.013001  0.086156  2.389877  -5.487721  0.433732  6.5202  -5.487721  0.433732  6.5202  0.78994  24.211512  5.1873  -147.791177  68.146541  -86.795731  -26.181344  -17.543853  91.046776  99.073508  18.269776  -18.614212  13.97352  -7.43349  17.341457  62.127621  39.124153  24.201611  -12.682452  31.130032  -92.298404  53.286991  -0.493375  17.122061  10.887663  -1.417606  -5.995136  8.152362  -1.170598  -4.472548  
0.0  101.685394  0.0  -1.438074  -21.704636  -96.021957  18.477351  -25.321461  -38.593335  6.786164  12.744517  59.622246  -0.634915  3.93448  2.649055  -7.980158  18.596499  4.292403  -5.294946  10.464327  25.653859  -2.749492  7.406945  -5.780042  -1.837447  0.139786  2.388084  -5.003163  0.562648  6.512781  -5.003163  0.562648  6.512781  1.03161  24.184227  5.46373  -151.211779  68.068835  -88.801456  -26.238761  -17.099737  91.457458  99.065235  18.485713  -19.608607  13.890268  -7.726336  17.180558  61.47262  41.317108  23.140477  -12.791985  29.448985  -93.389924  52.835225  -0.62411  17.932184  10.421216  -1.663977  -6.11303  7.79965  -1.352859  -4.557643  
0.0  101.685394  0.0  -1.343241  -20.558581  -95.732464  17.873974  -24.911959  -38.970271  6.743713  12.961387  59.526191  -0.912501  3.854831  2.326586  -8.137814  18.529009  4.563858  -5.76762  10.417526  25.198545  -2.98442  7.566833  -5.668725  -1.771223  0.165696  2.342096  -4.820333  0.6235  6.385977  -4.820333  0.6235  6.385977  0.894953  23.915837  5.572361  -155.241217  67.708689  -91.60433  -26.341114  -16.486807  91.993355  99.044039  18.743634  -20.75464  13.923067  -8.001201  16.967465  60.48788  43.629394  21.766987  -12.897886  27.526331  -94.351718  52.42599  -0.815334  18.809299  9.895111  -1.872642  -6.238156  7.402476  -1.506144  -4.649319  
0.0  101.685394  0.0  -1.192487  -19.61708  -95.533646  17.345237  -24.503667  -39.274068  6.933271  12.840552  59.662628  -1.287263  3.792405  2.013396  -8.12969  18.53249  4.958283  -6.089071  10.269899  24.666575  -3.339093  7.716018  -5.57921  -1.662807  0.207249  2.293255  -4.520941  0.723125  6.250954  -4.520941  0.723125  6.250954  0.791666  23.684531  5.723444  -158.01608  66.30604  -95.54188  -31.384121  -29.374224  77.593327  98.703566  19.872854  -22.489981  13.853328  -8.371895  16.692979  59.648566  45.967353  20.35773  -13.021955  25.472641  -95.127526  52.152182  -1.024896  19.608916  9.323907  -2.118966  -6.309461  6.971138  -1.686163  -4.700516  
